Coordinates
nRows=9
nColumns=38

# SIMM Motion File Header:
name Coordinates
datacolumns 38
datarows 9
otherdata 1
range 0.25450000000000000000 0.26250000000000001000

Units are S.I. units (second, meters, Newtons, ...)
Angles are in degrees.

endheader
time	pelvis_tilt	pelvis_list	pelvis_rotation	pelvis_tx	pelvis_ty	pelvis_tz	hip_flexion_r	hip_adduction_r	hip_rotation_r	knee_angle_r	ankle_angle_r	subtalar_angle_r	mtp_angle_r	hip_flexion_l	hip_adduction_l	hip_rotation_l	knee_angle_l	ankle_angle_l	subtalar_angle_l	mtp_angle_l	lumbar_extension	lumbar_bending	lumbar_rotation	arm_flex_r	arm_add_r	arm_rot_r	elbow_flex_r	pro_sup_r	wrist_flex_r	wrist_dev_r	arm_flex_l	arm_add_l	arm_rot_l	elbow_flex_l	pro_sup_l	wrist_flex_l	wrist_dev_l
      0.25450000000000000000	     -6.56436286099351560000	     -6.76678684845700480000	     -3.29949748331273130000	      1.10779619766302710000	      0.97405576534397942000	     -0.42335699388015607000	     35.83190214277571800000	     13.25799624458319700000	      3.04399855784043360000	     -8.36318328979673530000	     13.95806957272827000000	      0.00000000000000000000	      0.00000000000000000000	    -22.96521373896011700000	      4.40693439457163820000	      4.94337955286369720000	    -50.67514767309798200000	    -18.80849951031588300000	      0.00000000000000000000	      0.00000000000000000000	    -12.58961463044522400000	     13.25653670313961300000	     -7.68426069796212290000	    -61.09200295943670500000	    -12.60735396211181000000	    -26.51152099678380500000	    124.87719292809844000000	     93.90917321219446000000	      0.00000000000000000000	      0.00000000000000000000	    -12.36870083082064700000	    -19.36489433438616100000	      4.23268135889901310000	    127.99049720060779000000	     97.00326023283376700000	      0.00000000000000000000	      0.00000000000000000000
      0.25550000000000000000	     -6.46704385798231220000	     -6.77692639067151510000	     -3.34784282123510170000	      1.10793565978237800000	      0.97386940940037470000	     -0.42336011582280830000	     35.51831760298236400000	     13.29312832957384800000	      3.05552786141288600000	     -8.07447575538850690000	     13.90940091133565000000	     -0.00000000000000000155	      0.00000000000000000185	    -22.86500964746542100000	      4.36198454405743610000	      4.55371613268373480000	    -51.39764015996763600000	    -18.72322946361652600000	     -0.00000000000000000087	     -0.00000000000000000245	    -12.72266979307950200000	     13.24133649459039800000	     -7.55895626887573520000	    -60.87858663685565800000	    -12.77089268232636600000	    -26.49016235432207700000	    124.82427910810006000000	     93.96733793887349900000	     -0.00000000000000000031	      0.00000000000000000128	    -12.54133732514040600000	    -19.29813666974158100000	      4.22709329484158760000	    127.74969159788741000000	     96.98561177701068900000	     -0.00000000000000000098	      0.00000000000000000039
      0.25650000000000001000	     -6.37032755773267300000	     -6.78681147184313980000	     -3.39488421895282460000	      1.10807296701102140000	      0.97367333442191262000	     -0.42336564948964023000	     35.21162090630569700000	     13.32619574243166800000	      3.05540258577370240000	     -7.81276870673892620000	     13.85996189818218300000	     -0.00000000000000000741	      0.00000000000000000748	    -22.76264516651652100000	      4.31407659451623630000	      4.16892114025398010000	    -52.11979271748484200000	    -18.63183220264146200000	     -0.00000000000000000412	     -0.00000000000000000625	    -12.85430169057694600000	     13.22586754693817600000	     -7.43431048340160580000	    -60.66281688714349900000	    -12.93715445104602700000	    -26.46766984399999200000	    124.76991047543639000000	     94.02459991858808100000	     -0.00000000000000000132	      0.00000000000000000419	    -12.71533026565363900000	    -19.23008218622016900000	      4.21918662071891590000	    127.50535710826892000000	     96.96320922815495200000	     -0.00000000000000000196	      0.00000000000000000048
      0.25750000000000001000	     -6.27418644865795900000	     -6.79639918966816750000	     -3.44059618445421920000	      1.10820801792401460000	      0.97346763950382087000	     -0.42337368346169935000	     34.91190802218083900000	     13.35718788540778800000	      3.04357420028220150000	     -7.57818645394373380000	     13.80910612994346700000	     -0.00000000000000001241	      0.00000000000000001469	    -22.65819808863998500000	      4.26339112507172930000	      3.78938702020249800000	    -52.84150250825624800000	    -18.53419605119991300000	     -0.00000000000000000736	     -0.00000000000000001082	    -12.98453728532014400000	     13.21010535392431300000	     -7.31034475359291400000	    -60.44471036445392500000	    -13.10611542214752500000	    -26.44400791101298200000	    124.71410856401525000000	     94.08080689479220400000	     -0.00000000000000000314	      0.00000000000000000702	    -12.89059270236968200000	    -19.16078665676338800000	      4.20900307120160560000	    127.25748456468071000000	     96.93611237561431400000	     -0.00000000000000000190	      0.00000000000000000107
      0.25850000000000001000	     -6.17857807801436910000	     -6.80564868955841270000	     -3.48475395660778140000	      1.10834072327505640000	      0.97325241743595114000	     -0.42338462868484367000	     34.61925342587822000000	     13.38597267002815600000	      3.01981557186787650000	     -7.37078077274728120000	     13.75662316799088800000	     -0.00000000000000002137	      0.00000000000000002356	    -22.55172869970042600000	      4.21006150293027570000	      3.41573368152993820000	    -53.56272852446082300000	    -18.43017030115047900000	     -0.00000000000000000751	     -0.00000000000000001773	    -13.11337571082439100000	     13.19406744700092200000	     -7.18727661177969420000	    -60.22428245460017100000	    -13.27773682722052900000	    -26.41913022942402000000	    124.65690077910770000000	     94.13578709597844400000	     -0.00000000000000000479	      0.00000000000000001043	    -13.06702811499473400000	    -19.09032463046951000000	      4.19659289956449030000	    127.00606348834566000000	     96.90441258654911400000	     -0.00000000000000000271	      0.00000000000000000118
      0.25950000000000001000	     -6.08355108055334260000	     -6.81449503398972660000	     -3.52723965355405380000	      1.10847095980538500000	      0.97302759959239860000	     -0.42339873766962621000	     34.33384287595159600000	     13.41245452799765100000	      2.98401975403849210000	     -7.19062551890773620000	     13.70233367727266900000	     -0.00000000000000003502	      0.00000000000000003585	    -22.44319624487791000000	      4.15427999421928720000	      3.04847489412097380000	    -54.28343200325716800000	    -18.31962517207157100000	     -0.00000000000000000770	     -0.00000000000000002393	    -13.24073165364665300000	     13.17773575101288900000	     -7.06523611333957820000	    -60.00156322070145600000	    -13.45197921766870200000	    -26.39299433818541400000	    124.59830762680174000000	     94.18937380213348800000	     -0.00000000000000000594	      0.00000000000000001257	    -13.24455741869879300000	    -19.01876123011404500000	      4.18200814601317110000	    126.75107693757600000000	     96.86823147707083600000	     -0.00000000000000000311	     -0.00000000000000000069
      0.26050000000000001000	     -5.98910842408034940000	     -6.82288344194270910000	     -3.56800827776962490000	      1.10859861460101450000	      0.97279319508197082000	     -0.42341614361907670000	     34.05579909319194300000	     13.43658714777251200000	      2.93617799324874710000	     -7.03776285105508050000	     13.64605867824103500000	     -0.00000000000000005217	      0.00000000000000004813	    -22.33262236323673400000	      4.09625684681236990000	      2.68801950483123080000	    -55.00353567531332300000	    -18.20247515537799600000	     -0.00000000000000000759	     -0.00000000000000003212	    -13.36659181960178700000	     13.16108528684058500000	     -6.94427169963990650000	    -59.77658170271421800000	    -13.62880218008799300000	    -26.36556305534013900000	    124.53835793261771000000	     94.24140070401652700000	     -0.00000000000000000722	      0.00000000000000001596	    -13.42308732722022700000	    -18.94616067120547600000	      4.16530400818891430000	    126.49250998474008000000	     96.82770897627024500000	     -0.00000000000000000074	     -0.00000000000000000399
      0.26150000000000001000	     -5.89523413272336510000	     -6.83079325115616860000	     -3.60707476866340220000	      1.10872358558738910000	      0.97254925114328139000	     -0.42343688194144047000	     33.78520864069469100000	     13.45838553371110500000	      2.87634871411295650000	     -6.91219838156386150000	     13.58758088243971000000	     -0.00000000000000007024	      0.00000000000000006021	    -22.22005958409879500000	      4.03618648820190540000	      2.33467212384406240000	    -55.72294346029139700000	    -18.07865864393191300000	     -0.00000000000000000722	     -0.00000000000000004207	    -13.49098360637833900000	     13.14411568863757500000	     -6.82436154074961720000	    -59.54937394098335800000	    -13.80816728384685500000	    -26.33680973832428400000	    124.47708848825586000000	     94.29169961172017600000	     -0.00000000000000000868	      0.00000000000000002074	    -13.60251342617158300000	    -18.87257821003622700000	      4.14654098101776200000	    126.23034491759068000000	     96.78300783499906900000	      0.00000000000000000151	     -0.00000000000000000622
      0.26250000000000001000	     -5.80192315368167490000	     -6.83819607626039620000	     -3.64450510945649510000	      1.10884575242627890000	      0.97229579803008481000	     -0.42346090643327106000	     33.52216585770498400000	     13.47788125789084300000	      2.80466625829473500000	     -6.81392307785907740000	     13.52665605021051600000	     -0.00000000000000009457	      0.00000000000000007310	    -22.10554642545676500000	      3.97428719387023530000	      1.98866622335340360000	    -56.44155562928470700000	    -17.94814440862203100000	     -0.00000000000000000788	     -0.00000000000000005478	    -13.61393543663454900000	     13.12680824803595500000	     -6.70543748231700930000	    -59.31997881901167300000	    -13.99002989008892500000	    -26.30670897581428500000	    124.41453432054534000000	     94.34010836471637200000	     -0.00000000000000000978	      0.00000000000000002462	    -13.78272530997992000000	    -18.79806886038041100000	      4.12578085894280020000	    125.96456104094003000000	     96.73431050887533900000	      0.00000000000000000433	     -0.00000000000000000503
